<svg width="200" height="200" viewBox="0 0 200 200" xmlns="http://www.w3.org/2000/svg">
  <defs>
    <linearGradient id="grad1" x1="0%" y1="0%" x2="100%" y2="100%">
      <stop offset="0%" style="stop-color:#4f46e5;stop-opacity:1" />
      <stop offset="100%" style="stop-color:#7c3aed;stop-opacity:1" />
    </linearGradient>
  </defs>
  
  <!-- Background circle -->
  <circle cx="100" cy="100" r="90" fill="url(#grad1)" opacity="0.1"/>
  
  <!-- People icons -->
  <g fill="url(#grad1)">
    <!-- Person 1 -->
    <circle cx="70" cy="80" r="12"/>
    <rect x="60" y="95" width="20" height="25" rx="10"/>
    
    <!-- Person 2 -->
    <circle cx="130" cy="80" r="12"/>
    <rect x="120" y="95" width="20" height="25" rx="10"/>
    
    <!-- Person 3 -->
    <circle cx="100" cy="110" r="12"/>
    <rect x="90" y="125" width="20" height="25" rx="10"/>
  </g>
  
  <!-- Connection lines -->
  <g stroke="url(#grad1)" stroke-width="2" fill="none">
    <line x1="82" y1="85" x2="118" y2="85"/>
    <line x1="75" y1="95" x2="95" y2="115"/>
    <line x1="125" y1="95" x2="105" y2="115"/>
  </g>
  
  <!-- Registry/list icon -->
  <rect x="40" y="40" width="30" height="40" fill="none" stroke="url(#grad1)" stroke-width="2" rx="3"/>
  <line x1="45" y1="50" x2="65" y2="50" stroke="url(#grad1)" stroke-width="1.5"/>
  <line x1="45" y1="58" x2="65" y2="58" stroke="url(#grad1)" stroke-width="1.5"/>
  <line x1="45" y1="66" x2="65" y2="66" stroke="url(#grad1)" stroke-width="1.5"/>
</svg>